<svg width="121" height="29" viewBox="0 0 121 29" fill="none" xmlns="http://www.w3.org/2000/svg">
<g clip-path="url(#clip0_727_122)">
<path d="M84.2223 21.5526C82.9974 21.5526 82.1256 21.2163 81.6048 20.5416C81.0821 19.8689 80.8539 18.9904 80.9163 17.9061C80.9397 17.5104 80.9943 17.1008 81.084 16.6774C81.1738 16.256 81.2947 15.8187 81.4527 15.3696L85.3789 3.40513H81.9812L82.5137 1.62243L90.7661 0L85.2892 16.5646C85.1936 16.8812 85.1371 17.1701 85.1215 17.4352C85.0786 18.1732 85.3965 18.5412 86.0733 18.5412C86.6974 18.5412 87.4269 18.2049 88.2597 17.5341C89.0926 16.8614 89.9313 15.9592 90.7778 14.8255C91.6243 13.6918 92.4337 12.3681 93.2119 10.8525C93.9882 9.3369 94.6338 7.73623 95.1468 6.04851L96.832 0.474858H101.049L95.5232 18.5808L96.2078 18.8974L100.528 14.3803L101.653 15.1717L98.9268 18.4621C97.9164 19.7304 97.0504 20.5614 96.3249 20.9571C95.5993 21.3528 94.9244 21.5507 94.2983 21.5507C93.3095 21.5507 92.6288 21.2776 92.2562 20.7335C91.8837 20.1894 91.7159 19.5859 91.755 18.9211C91.7745 18.5749 91.8349 18.2049 91.9363 17.8052C92.0378 17.4075 92.1353 17.0632 92.2289 16.7704L93.0461 14.1013L92.6619 13.9826C92.0846 14.966 91.4975 15.9137 90.8987 16.8298C90.2999 17.7459 89.6602 18.5492 88.9834 19.2397C88.3046 19.9302 87.5771 20.4882 86.7989 20.9116C86.0187 21.3389 85.1605 21.5526 84.2223 21.5526Z" fill="#FFB600"/>
<path d="M96.6447 27.0986H99.2603L106.434 3.40711H103.075L103.606 1.62441L111.316 0L109.112 7.13079L109.496 7.2495C110.023 6.24637 110.557 5.30259 111.103 4.41618C111.648 3.53176 112.233 2.76605 112.855 2.11906C113.477 1.47206 114.144 0.957631 114.858 0.573787C115.57 0.189943 116.356 0 117.214 0C118.671 0 119.691 0.51443 120.271 1.54527C120.85 2.57413 121.084 4.04025 120.977 5.94167C120.883 7.57993 120.549 9.31514 119.976 11.1513C119.403 12.9874 118.636 14.6771 117.674 16.2223C116.713 17.7676 115.574 19.0418 114.253 20.045C112.933 21.0481 111.492 21.5507 109.929 21.5507C107.872 21.5507 106.639 20.5871 106.227 18.658H105.837L103.481 27.0966H106.996L106.418 28.998H96.0693L96.6447 27.0986ZM108.894 19.1348C110.091 19.1348 111.25 18.5472 112.373 17.3719C113.495 16.1966 114.45 14.408 115.238 12.004C115.367 11.5549 115.513 11.0464 115.677 10.4785C115.839 9.91069 115.983 9.3369 116.108 8.7552C116.233 8.17548 116.342 7.6195 116.438 7.09122C116.533 6.56294 116.592 6.09995 116.615 5.70424C116.664 4.85938 116.61 4.19854 116.455 3.72368C116.299 3.24882 115.948 3.01139 115.402 3.01139C114.647 3.01139 113.861 3.41502 113.048 4.2203C112.235 5.02558 111.449 6.003 110.694 7.15255C109.939 8.30211 109.264 9.50904 108.671 10.7773C108.078 12.0456 107.637 13.1417 107.351 14.0657L107.111 14.8591C106.727 16.1274 106.666 17.1562 106.933 17.9496C107.199 18.7391 107.852 19.1348 108.894 19.1348Z" fill="#FFB600"/>
<path d="M20.0778 20.229C18.4629 19.3525 17.1912 18.102 16.2667 16.4756C15.3421 14.8492 14.8799 12.9478 14.8799 10.7714C14.8799 8.62066 15.348 6.72518 16.2862 5.08494C17.2243 3.44668 18.5058 2.19028 20.1344 1.31377C21.7611 0.437265 23.5867 0 25.6093 0C27.6319 0 29.4575 0.437265 31.0842 1.31377C32.7128 2.19028 33.9943 3.44668 34.9325 5.08494C35.8687 6.72518 36.3387 8.62066 36.3387 10.7714C36.3387 12.9241 35.8628 14.8195 34.9149 16.4578C33.965 18.098 32.6699 19.3544 31.0296 20.229C29.3893 21.1055 27.5578 21.5427 25.5352 21.5427C23.5126 21.5427 21.6928 21.1055 20.0778 20.229ZM28.6247 14.6375C29.4751 13.7373 29.9003 12.4492 29.9003 10.7714C29.9003 9.09552 29.4868 7.80549 28.6598 6.90523C27.8328 6.00498 26.8147 5.55386 25.6074 5.55386C24.3747 5.55386 23.3507 5.99904 22.5373 6.88545C21.724 7.77383 21.3164 9.0698 21.3164 10.7694C21.3164 12.4452 21.7162 13.7353 22.5198 14.6355C23.3214 15.5358 24.3259 15.9869 25.5352 15.9869C26.7445 15.9889 27.7743 15.5378 28.6247 14.6375Z" fill="white"/>
<path d="M65.5136 20.6049C64.1073 19.9797 62.9975 19.1229 62.1842 18.0347C61.3708 16.9465 60.9144 15.7257 60.8149 14.3763H67.0681C67.1422 15.1025 67.4757 15.6901 68.0667 16.1392C68.6596 16.5904 69.3852 16.8139 70.2493 16.8139C71.0392 16.8139 71.6497 16.6576 72.0807 16.345C72.5118 16.0324 72.7283 15.6268 72.7283 15.1262C72.7283 14.5247 72.4201 14.0815 71.8038 13.7927C71.1874 13.5058 70.1868 13.1872 68.8059 12.835C67.3255 12.4848 66.0929 12.1168 65.1059 11.727C64.119 11.3392 63.2686 10.7259 62.5528 9.88893C61.837 9.05001 61.48 7.91826 61.48 6.49171C61.48 5.29071 61.8058 4.19656 62.4611 3.20727C63.1145 2.21996 64.0761 1.43843 65.3478 0.860681C66.6175 0.288872 68.1272 0 69.8806 0C72.4708 0 74.511 0.650952 76.0031 1.95088C77.4952 3.25278 78.3514 4.9781 78.5738 7.13079H72.7283C72.6288 6.40465 72.3148 5.83087 71.7843 5.40349C71.2537 4.9781 70.5574 4.76639 69.6934 4.76639C68.9542 4.76639 68.3866 4.91083 67.9906 5.19772C67.5966 5.48461 67.3977 5.88033 67.3977 6.38091C67.3977 6.98042 67.7117 7.43153 68.3417 7.73228C68.9698 8.03302 69.9508 8.33377 71.283 8.63253C72.8121 9.0322 74.0585 9.42594 75.0201 9.81572C75.9816 10.2035 76.8262 10.8287 77.5556 11.6914C78.2832 12.5541 78.6596 13.7135 78.683 15.1638C78.683 16.3905 78.3436 17.4847 77.6649 18.4482C76.9861 19.4118 76.0128 20.1696 74.7411 20.7197C73.4694 21.2697 71.9969 21.5447 70.3195 21.5447C68.5231 21.5427 66.9198 21.2301 65.5136 20.6049Z" fill="white"/>
<path d="M11.1527 0.300781L6.32336 5.83684L5.70311 5.54994L7.30638 0.300781H6.32726H0V21.244H6.32726V15.2826V11.5233V7.09323H14.5113V0.300781H11.1527Z" fill="white"/>
<path d="M52.7285 0.300744V3.26465V3.48625C51.1292 1.41864 49.2372 0 46.3798 0C40.8425 0 37.2634 4.82179 37.2634 10.7714C37.2634 16.721 40.8425 21.5427 46.3798 21.5427C49.288 21.5427 51.1682 20.0885 52.7285 18.0407V18.2781V21.244H59.0558V0.300744H52.7285ZM51.4159 14.5623C50.5401 15.4883 49.4732 15.9513 48.2152 15.9513C46.9572 15.9513 45.8903 15.4824 45.0145 14.5445C44.1388 13.6067 43.7019 12.3364 43.7019 10.7358C43.7019 9.13509 44.1388 7.87671 45.0145 6.96459C45.8903 6.05247 46.9572 5.59541 48.2152 5.59541C49.4732 5.59541 50.5401 6.0584 51.4159 6.98438C52.2916 7.91035 52.7285 9.17466 52.7285 10.7753C52.7285 12.374 52.2916 13.6363 51.4159 14.5623Z" fill="white"/>
</g>
<defs>
<clipPath id="clip0_727_122">
<rect width="121" height="29" fill="white"/>
</clipPath>
</defs>
</svg>
